<svg width="310" height="72" viewBox="0 0 310 72" fill="none" xmlns="http://www.w3.org/2000/svg" role="img" aria-labelledby="title desc">
  <title id="title">PitchCraft logo</title>
  <desc id="desc">PitchCraft wordmark with a blue and teal speech bubble P mark.</desc>
  <defs>
    <linearGradient id="markGradient" x1="6" y1="8" x2="62" y2="64" gradientUnits="userSpaceOnUse">
      <stop stop-color="#2563EB"/>
      <stop offset="1" stop-color="#14B8A6"/>
    </linearGradient>
    <linearGradient id="shineGradient" x1="19" y1="13" x2="49" y2="42" gradientUnits="userSpaceOnUse">
      <stop stop-color="white" stop-opacity="0.72"/>
      <stop offset="1" stop-color="white" stop-opacity="0"/>
    </linearGradient>
  </defs>
  <path d="M36 4C18.048 4 4 16.581 4 33.2C4 49.849 18.048 62.43 36 62.43H39.209L50.423 68.817C52.735 70.134 55.6 68.464 55.6 65.803V59.304C64.624 54.114 68 44.834 68 33.2C68 16.581 53.952 4 36 4Z" fill="url(#markGradient)"/>
  <path d="M22 48V20H38.2C44.461 20 49.2 24.739 49.2 31C49.2 37.261 44.461 42 38.2 42H30.4V48H22ZM30.4 34.6H37.2C39.341 34.6 40.8 33.141 40.8 31C40.8 28.859 39.341 27.4 37.2 27.4H30.4V34.6Z" fill="white"/>
  <path d="M43.8 48.4L53.8 38.4L58.6 43.2L48.6 53.2H43.8V48.4Z" fill="white"/>
  <path d="M51.97 40.23L53.8 38.4C54.683 37.517 56.117 37.517 57 38.4L58.6 40C59.483 40.883 59.483 42.317 58.6 43.2L56.77 45.03L51.97 40.23Z" fill="#DDFBFF"/>
  <path d="M15.5 22.5C20.6 13.7 34 11.4 45.1 15.4" stroke="url(#shineGradient)" stroke-width="5.5" stroke-linecap="round"/>
  <text x="84" y="46" fill="#0F172A" font-family="Inter, ui-sans-serif, system-ui, -apple-system, BlinkMacSystemFont, 'Segoe UI', sans-serif" font-size="34" font-weight="850" letter-spacing="-1.4">Pitch</text>
  <text x="169" y="46" fill="#2563EB" font-family="Inter, ui-sans-serif, system-ui, -apple-system, BlinkMacSystemFont, 'Segoe UI', sans-serif" font-size="34" font-weight="850" letter-spacing="-1.4">Craft</text>
</svg>
