<svg width="64" height="64" viewBox="0 0 64 64" fill="none" xmlns="http://www.w3.org/2000/svg" role="img" aria-labelledby="title desc">
  <title id="title">PitchCraft mark</title>
  <desc id="desc">A blue and teal speech bubble P mark with a pencil detail.</desc>
  <defs>
    <linearGradient id="markGradient" x1="6" y1="7" x2="58" y2="58" gradientUnits="userSpaceOnUse">
      <stop stop-color="#2563EB"/>
      <stop offset="1" stop-color="#14B8A6"/>
    </linearGradient>
    <linearGradient id="shineGradient" x1="18" y1="12" x2="45" y2="38" gradientUnits="userSpaceOnUse">
      <stop stop-color="white" stop-opacity="0.72"/>
      <stop offset="1" stop-color="white" stop-opacity="0"/>
    </linearGradient>
  </defs>
  <path d="M32 4C15.984 4 4 15.137 4 30.406C4 45.702 15.984 56.84 32 56.84H34.918L45.17 62.677C47.261 63.868 49.852 62.358 49.852 59.951V53.974C58.17 49.32 62 40.827 62 30.406C62 15.137 48.016 4 32 4Z" fill="url(#markGradient)"/>
  <path d="M19.5 44V19.25H34.25C39.824 19.25 44.25 23.676 44.25 29.25C44.25 34.824 39.824 39.25 34.25 39.25H27.25V44H19.5ZM27.25 32.45H33.35C35.196 32.45 36.5 31.146 36.5 29.25C36.5 27.354 35.196 26.05 33.35 26.05H27.25V32.45Z" fill="white"/>
  <path d="M38.75 43.25L47.75 34.25L52.25 38.75L43.25 47.75H38.75V43.25Z" fill="white"/>
  <path d="M46.05 35.95L47.75 34.25C48.578 33.422 49.922 33.422 50.75 34.25L52.25 35.75C53.078 36.578 53.078 37.922 52.25 38.75L50.55 40.45L46.05 35.95Z" fill="#DDFBFF"/>
  <path d="M14 20C18.6 11.8 30.8 9.6 40.8 13.4" stroke="url(#shineGradient)" stroke-width="5" stroke-linecap="round"/>
</svg>
